<svg width="256" height="256" viewBox="0 0 256 256" fill="none" xmlns="http://www.w3.org/2000/svg">
  <defs>
    <linearGradient id="g1" x1="60" y1="52" x2="190" y2="196" gradientUnits="userSpaceOnUse">
      <stop stop-color="#63C8FF"/>
      <stop offset="1" stop-color="#1F78FF"/>
    </linearGradient>
    <filter id="shadow" x="16" y="20" width="224" height="216" filterUnits="userSpaceOnUse" color-interpolation-filters="sRGB">
      <feFlood flood-opacity="0" result="BackgroundImageFix"/>
      <feColorMatrix in="SourceAlpha" type="matrix" values="0 0 0 0 0 0 0 0 0 0 0 0 0 0 0 0 0 0 127 0" result="hardAlpha"/>
      <feOffset dy="10"/>
      <feGaussianBlur stdDeviation="10"/>
      <feComposite in2="hardAlpha" operator="out"/>
      <feColorMatrix type="matrix" values="0 0 0 0 0.121569 0 0 0 0 0.470588 0 0 0 0 1 0 0 0 0.22 0"/>
      <feBlend mode="normal" in2="BackgroundImageFix" result="effect1_dropShadow_1_2"/>
      <feBlend mode="normal" in="SourceGraphic" in2="effect1_dropShadow_1_2" result="shape"/>
    </filter>
  </defs>
  <g filter="url(#shadow)">
    <path d="M171.463 78.5C162.137 69.8077 148.45 64 130.676 64C98.1584 64 76 81.6442 76 108.198C76 127.237 90.1105 138.237 116.205 142.87L134.278 146.116C149.361 148.947 156.511 153.895 156.511 162.271C156.511 173.215 146.349 180.093 128.665 180.093C110.533 180.093 95.7526 174.229 84.4807 162.454L66 180.518C79.4937 196.262 100.82 204 127.112 204C162.614 204 185 186.644 185 159.277C185 140.181 171.948 129.549 145.691 124.916L127.691 121.669C112.385 118.839 104.348 113.833 104.348 105.372C104.348 94.856 114.288 87.907 130.602 87.907C146.008 87.907 157.578 92.3133 166.326 100.86L171.463 78.5Z" fill="url(#g1)"/>
  </g>
</svg>
